<mxfile host="65bd71144e">
    <diagram id="gFEwZH1T8goP2gBtn6WP" name="ページ1">
        <mxGraphModel dx="1001" dy="544" grid="1" gridSize="10" guides="1" tooltips="1" connect="1" arrows="1" fold="1" page="1" pageScale="1" pageWidth="827" pageHeight="1169" math="0" shadow="0">
            <root>
                <mxCell id="0"/>
                <mxCell id="1" parent="0"/>
                <mxCell id="8" value="" style="edgeStyle=elbowEdgeStyle;elbow=vertical;startArrow=none;endArrow=none;rounded=0;" parent="1" source="10" target="11" edge="1">
                    <mxGeometry relative="1" as="geometry"/>
                </mxCell>
                <mxCell id="9" value="" style="edgeStyle=elbowEdgeStyle;elbow=vertical;startArrow=none;endArrow=none;rounded=0;" parent="1" source="10" target="12" edge="1">
                    <mxGeometry relative="1" as="geometry"/>
                </mxCell>
                <mxCell id="30" value="" style="edgeStyle=orthogonalEdgeStyle;rounded=0;jumpSize=6;html=1;endArrow=none;endFill=0;strokeWidth=1;exitX=0.5;exitY=1;exitDx=0;exitDy=0;" parent="1" source="10" edge="1">
                    <mxGeometry relative="1" as="geometry">
                        <mxPoint x="10" y="70" as="targetPoint"/>
                    </mxGeometry>
                </mxCell>
                <UserObject label="文科省" treeRoot="1" id="10">
                    <mxCell style="whiteSpace=wrap;html=1;align=center;treeFolding=1;treeMoving=1;newEdgeStyle={&quot;edgeStyle&quot;:&quot;elbowEdgeStyle&quot;,&quot;startArrow&quot;:&quot;none&quot;,&quot;endArrow&quot;:&quot;none&quot;};" parent="1" vertex="1">
                        <mxGeometry x="40" width="120" height="30" as="geometry"/>
                    </mxCell>
                </UserObject>
                <mxCell id="43" value="" style="edgeStyle=orthogonalEdgeStyle;rounded=0;jumpSize=6;html=1;fontSize=12;endArrow=none;endFill=0;strokeColor=#FFFFFF;strokeWidth=1;" parent="1" source="11" target="42" edge="1">
                    <mxGeometry relative="1" as="geometry"/>
                </mxCell>
                <mxCell id="44" value="" style="edgeStyle=orthogonalEdgeStyle;rounded=0;jumpSize=6;html=1;endArrow=none;endFill=0;strokeWidth=1;" parent="1" source="11" target="42" edge="1">
                    <mxGeometry relative="1" as="geometry"/>
                </mxCell>
                <mxCell id="46" value="" style="edgeStyle=orthogonalEdgeStyle;rounded=0;jumpSize=6;html=1;endArrow=none;endFill=0;strokeWidth=1;exitX=0.5;exitY=1;" parent="1" source="11" edge="1">
                    <mxGeometry relative="1" as="geometry">
                        <mxPoint y="150" as="targetPoint"/>
                    </mxGeometry>
                </mxCell>
                <mxCell id="11" value="〇〇県&lt;br&gt;教育委員会" style="whiteSpace=wrap;html=1;align=center;verticalAlign=middle;treeFolding=1;treeMoving=1;newEdgeStyle={&quot;edgeStyle&quot;:&quot;elbowEdgeStyle&quot;,&quot;startArrow&quot;:&quot;none&quot;,&quot;endArrow&quot;:&quot;none&quot;};" parent="1" vertex="1">
                    <mxGeometry x="60" y="70" width="80" height="40" as="geometry"/>
                </mxCell>
                <mxCell id="14" value="" style="edgeStyle=orthogonalEdgeStyle;html=1;strokeWidth=4;jumpSize=6;rounded=0;exitX=0.5;exitY=1;exitDx=0;exitDy=0;endArrow=none;endFill=0;" parent="1" source="12" target="13" edge="1">
                    <mxGeometry relative="1" as="geometry"/>
                </mxCell>
                <mxCell id="24" value="" style="edgeStyle=orthogonalEdgeStyle;rounded=0;jumpSize=6;html=1;strokeWidth=1;endArrow=none;endFill=0;" parent="1" source="12" target="23" edge="1">
                    <mxGeometry relative="1" as="geometry"/>
                </mxCell>
                <mxCell id="28" value="" style="edgeStyle=orthogonalEdgeStyle;rounded=0;jumpSize=6;html=1;strokeWidth=1;exitX=0.5;exitY=1;exitDx=0;exitDy=0;endArrow=none;endFill=0;" parent="1" source="12" edge="1">
                    <mxGeometry relative="1" as="geometry">
                        <mxPoint x="130" y="150" as="targetPoint"/>
                    </mxGeometry>
                </mxCell>
                <mxCell id="12" value="東京都&lt;br&gt;教育委員会" style="whiteSpace=wrap;html=1;align=center;verticalAlign=middle;treeFolding=1;treeMoving=1;newEdgeStyle={&quot;edgeStyle&quot;:&quot;elbowEdgeStyle&quot;,&quot;startArrow&quot;:&quot;none&quot;,&quot;endArrow&quot;:&quot;none&quot;};" parent="1" vertex="1">
                    <mxGeometry x="160" y="70" width="80" height="40" as="geometry"/>
                </mxCell>
                <mxCell id="17" value="" style="edgeStyle=orthogonalEdgeStyle;rounded=0;jumpSize=6;html=1;strokeWidth=4;exitX=0.5;exitY=1;endArrow=none;endFill=0;" parent="1" source="13" target="16" edge="1">
                    <mxGeometry relative="1" as="geometry"/>
                </mxCell>
                <mxCell id="19" value="" style="edgeStyle=orthogonalEdgeStyle;rounded=0;jumpSize=6;html=1;strokeWidth=4;endArrow=none;endFill=0;" parent="1" source="13" target="18" edge="1">
                    <mxGeometry relative="1" as="geometry"/>
                </mxCell>
                <mxCell id="26" value="" style="edgeStyle=orthogonalEdgeStyle;rounded=0;jumpSize=6;html=1;strokeWidth=4;exitX=0.5;exitY=1;exitDx=0;exitDy=0;endArrow=none;endFill=0;" parent="1" source="13" edge="1">
                    <mxGeometry relative="1" as="geometry">
                        <mxPoint x="210" y="230" as="targetPoint"/>
                    </mxGeometry>
                </mxCell>
                <mxCell id="13" value="小平市&lt;br&gt;教育委員会" style="whiteSpace=wrap;html=1;align=center;verticalAlign=middle;treeFolding=1;treeMoving=1;newEdgeStyle={&quot;edgeStyle&quot;:&quot;elbowEdgeStyle&quot;,&quot;startArrow&quot;:&quot;none&quot;,&quot;endArrow&quot;:&quot;none&quot;};" parent="1" vertex="1">
                    <mxGeometry x="260" y="150" width="80" height="40" as="geometry"/>
                </mxCell>
                <mxCell id="16" value="小平&lt;br&gt;第〇小学校" style="whiteSpace=wrap;html=1;align=center;verticalAlign=middle;treeFolding=1;treeMoving=1;newEdgeStyle={&quot;edgeStyle&quot;:&quot;elbowEdgeStyle&quot;,&quot;startArrow&quot;:&quot;none&quot;,&quot;endArrow&quot;:&quot;none&quot;};" parent="1" vertex="1">
                    <mxGeometry x="360" y="230" width="80" height="40" as="geometry"/>
                </mxCell>
                <mxCell id="18" value="小平&lt;br&gt;第〇中学校" style="whiteSpace=wrap;html=1;align=center;verticalAlign=middle;treeFolding=1;treeMoving=1;newEdgeStyle={&quot;edgeStyle&quot;:&quot;elbowEdgeStyle&quot;,&quot;startArrow&quot;:&quot;none&quot;,&quot;endArrow&quot;:&quot;none&quot;};" parent="1" vertex="1">
                    <mxGeometry x="260" y="230" width="80" height="40" as="geometry"/>
                </mxCell>
                <mxCell id="23" value="〇〇市&lt;br&gt;教育委員会" style="whiteSpace=wrap;html=1;align=center;verticalAlign=middle;treeFolding=1;treeMoving=1;newEdgeStyle={&quot;edgeStyle&quot;:&quot;elbowEdgeStyle&quot;,&quot;startArrow&quot;:&quot;none&quot;,&quot;endArrow&quot;:&quot;none&quot;};" parent="1" vertex="1">
                    <mxGeometry x="160" y="150" width="80" height="40" as="geometry"/>
                </mxCell>
                <mxCell id="31" value="&lt;p style=&quot;line-height: 1.6&quot;&gt;&lt;br&gt;&lt;/p&gt;" style="curved=1;endArrow=classic;html=1;rounded=0;strokeWidth=5;jumpSize=6;fontSize=13;align=left;spacing=0;spacingTop=0;spacingBottom=0;fillColor=#e51400;strokeColor=#B20000;" parent="1" edge="1">
                    <mxGeometry x="-0.2712" y="-30" width="50" height="50" relative="1" as="geometry">
                        <mxPoint x="200" y="20" as="sourcePoint"/>
                        <mxPoint x="420" y="210" as="targetPoint"/>
                        <Array as="points">
                            <mxPoint x="380" y="50"/>
                        </Array>
                        <mxPoint as="offset"/>
                    </mxGeometry>
                </mxCell>
                <mxCell id="35" value="&lt;p style=&quot;line-height: 1.6; font-size: 13px;&quot;&gt;&lt;span style=&quot;text-align: left; font-size: 13px;&quot;&gt;管理重視のため、&lt;/span&gt;&lt;span style=&quot;text-align: left; font-size: 13px;&quot;&gt;伝言ゲーム&lt;/span&gt;&lt;span style=&quot;text-align: left; font-size: 13px;&quot;&gt;のよう&lt;br style=&quot;font-size: 13px;&quot;&gt;にしてどんどん制限が強くなる&lt;/span&gt;&lt;/p&gt;" style="text;html=1;strokeColor=none;fillColor=#e51400;align=center;verticalAlign=middle;whiteSpace=wrap;rounded=1;fontSize=13;rotation=40;labelBorderColor=none;fontColor=#ffffff;arcSize=50;" parent="1" vertex="1">
                    <mxGeometry x="215.29" y="70" width="228.71" height="44.03" as="geometry"/>
                </mxCell>
                <mxCell id="48" value="" style="edgeStyle=orthogonalEdgeStyle;rounded=0;jumpSize=6;html=1;endArrow=none;endFill=0;strokeWidth=1;" parent="1" source="42" target="47" edge="1">
                    <mxGeometry relative="1" as="geometry"/>
                </mxCell>
                <mxCell id="50" value="" style="edgeStyle=orthogonalEdgeStyle;rounded=0;jumpSize=6;html=1;endArrow=none;endFill=0;strokeWidth=1;exitX=0.5;exitY=1;" parent="1" source="42" edge="1">
                    <mxGeometry relative="1" as="geometry">
                        <mxPoint x="20" y="230" as="targetPoint"/>
                    </mxGeometry>
                </mxCell>
                <mxCell id="42" value="〇〇町&lt;br&gt;教育委員会" style="whiteSpace=wrap;html=1;align=center;verticalAlign=middle;treeFolding=1;treeMoving=1;newEdgeStyle={&quot;edgeStyle&quot;:&quot;elbowEdgeStyle&quot;,&quot;startArrow&quot;:&quot;none&quot;,&quot;endArrow&quot;:&quot;none&quot;};" parent="1" vertex="1">
                    <mxGeometry x="30" y="150" width="80" height="40" as="geometry"/>
                </mxCell>
                <mxCell id="47" value="〇〇&lt;br&gt;小学校" style="whiteSpace=wrap;html=1;align=center;verticalAlign=middle;treeFolding=1;treeMoving=1;newEdgeStyle={&quot;edgeStyle&quot;:&quot;elbowEdgeStyle&quot;,&quot;startArrow&quot;:&quot;none&quot;,&quot;endArrow&quot;:&quot;none&quot;};" parent="1" vertex="1">
                    <mxGeometry x="80" y="230" width="80" height="40" as="geometry"/>
                </mxCell>
                <mxCell id="52" value="&lt;p style=&quot;line-height: 1.6&quot;&gt;&lt;br&gt;&lt;/p&gt;" style="curved=1;endArrow=classic;html=1;rounded=0;strokeWidth=5;jumpSize=6;fontSize=13;align=left;spacing=0;spacingTop=0;spacingBottom=0;fillColor=#e51400;strokeColor=#B20000;startArrow=classic;startFill=1;" parent="1" edge="1">
                    <mxGeometry x="-0.665" y="-31" width="50" height="50" relative="1" as="geometry">
                        <mxPoint x="120" y="280" as="sourcePoint"/>
                        <mxPoint x="400" y="280" as="targetPoint"/>
                        <Array as="points">
                            <mxPoint x="260" y="360"/>
                        </Array>
                        <mxPoint as="offset"/>
                    </mxGeometry>
                </mxCell>
                <mxCell id="53" value="&lt;p style=&quot;line-height: 1.6 ; font-size: 13px&quot;&gt;&lt;span style=&quot;text-align: left ; font-size: 13px&quot;&gt;情報のやり取りや&lt;br&gt;交流がなかなかできない&lt;/span&gt;&lt;/p&gt;" style="text;html=1;strokeColor=none;fillColor=#e51400;align=center;verticalAlign=middle;whiteSpace=wrap;rounded=1;fontSize=13;rotation=0;labelBorderColor=none;dashed=1;fontColor=#ffffff;arcSize=50;" parent="1" vertex="1">
                    <mxGeometry x="170" y="285" width="180" height="45" as="geometry"/>
                </mxCell>
                <mxCell id="62" style="edgeStyle=orthogonalEdgeStyle;html=1;exitX=0.5;exitY=1;rounded=0;endArrow=none;endFill=0;exitDx=0;exitDy=0;" parent="1" source="67" target="57" edge="1">
                    <mxGeometry relative="1" as="geometry"/>
                </mxCell>
                <mxCell id="64" style="edgeStyle=orthogonalEdgeStyle;rounded=0;html=1;exitX=0.5;exitY=1;exitDx=0;exitDy=0;endArrow=none;endFill=0;" parent="1" source="67" target="63" edge="1">
                    <mxGeometry relative="1" as="geometry"/>
                </mxCell>
                <mxCell id="66" style="edgeStyle=orthogonalEdgeStyle;rounded=0;html=1;exitX=0.5;exitY=1;exitDx=0;exitDy=0;endArrow=none;endFill=0;startArrow=none;" parent="1" source="67" target="65" edge="1">
                    <mxGeometry relative="1" as="geometry"/>
                </mxCell>
                <UserObject label="文科省" treeRoot="1" id="56">
                    <mxCell style="whiteSpace=wrap;html=1;align=center;treeFolding=1;treeMoving=1;newEdgeStyle={&quot;edgeStyle&quot;:&quot;elbowEdgeStyle&quot;,&quot;startArrow&quot;:&quot;none&quot;,&quot;endArrow&quot;:&quot;none&quot;};" parent="1" vertex="1">
                        <mxGeometry x="140" y="440" width="120" height="30" as="geometry"/>
                    </mxCell>
                </UserObject>
                <mxCell id="57" value="東京都&lt;br&gt;小平&lt;br&gt;第〇小学校" style="whiteSpace=wrap;html=1;align=center;verticalAlign=middle;treeFolding=1;treeMoving=1;newEdgeStyle={&quot;edgeStyle&quot;:&quot;elbowEdgeStyle&quot;,&quot;startArrow&quot;:&quot;none&quot;,&quot;endArrow&quot;:&quot;none&quot;};" parent="1" vertex="1">
                    <mxGeometry x="340" y="580" width="80" height="60" as="geometry"/>
                </mxCell>
                <mxCell id="63" value="東京都&lt;br&gt;小平&lt;br&gt;第〇中学校" style="whiteSpace=wrap;html=1;align=center;verticalAlign=middle;treeFolding=1;treeMoving=1;newEdgeStyle={&quot;edgeStyle&quot;:&quot;elbowEdgeStyle&quot;,&quot;startArrow&quot;:&quot;none&quot;,&quot;endArrow&quot;:&quot;none&quot;};" parent="1" vertex="1">
                    <mxGeometry x="250" y="580" width="80" height="60" as="geometry"/>
                </mxCell>
                <mxCell id="65" value="〇〇県&lt;br&gt;〇〇市&lt;br&gt;第〇小学校" style="whiteSpace=wrap;html=1;align=center;verticalAlign=middle;treeFolding=1;treeMoving=1;newEdgeStyle={&quot;edgeStyle&quot;:&quot;elbowEdgeStyle&quot;,&quot;startArrow&quot;:&quot;none&quot;,&quot;endArrow&quot;:&quot;none&quot;};" parent="1" vertex="1">
                    <mxGeometry x="160" y="580" width="80" height="60" as="geometry"/>
                </mxCell>
                <mxCell id="70" style="edgeStyle=orthogonalEdgeStyle;rounded=0;html=1;exitX=0.5;exitY=1;exitDx=0;exitDy=0;endArrow=none;endFill=0;" parent="1" source="67" edge="1">
                    <mxGeometry relative="1" as="geometry">
                        <mxPoint x="110" y="580" as="targetPoint"/>
                    </mxGeometry>
                </mxCell>
                <mxCell id="67" value="共通の&lt;br&gt;事務処理を&lt;br&gt;担う組織" style="whiteSpace=wrap;html=1;align=center;verticalAlign=middle;treeFolding=1;treeMoving=1;newEdgeStyle={&quot;edgeStyle&quot;:&quot;elbowEdgeStyle&quot;,&quot;startArrow&quot;:&quot;none&quot;,&quot;endArrow&quot;:&quot;none&quot;};" parent="1" vertex="1">
                    <mxGeometry x="160" y="480" width="80" height="60" as="geometry"/>
                </mxCell>
                <mxCell id="68" value="" style="edgeStyle=orthogonalEdgeStyle;rounded=0;html=1;exitX=0.5;exitY=1;exitDx=0;exitDy=0;endArrow=none;endFill=0;" parent="1" source="56" target="67" edge="1">
                    <mxGeometry relative="1" as="geometry">
                        <mxPoint x="200" y="470" as="sourcePoint"/>
                        <mxPoint x="170" y="610" as="targetPoint"/>
                    </mxGeometry>
                </mxCell>
                <mxCell id="71" value="フラットにすれば&lt;br&gt;よいのでは・・・？" style="text;html=1;strokeColor=none;fillColor=none;align=center;verticalAlign=middle;whiteSpace=wrap;rounded=0;fontSize=11;" parent="1" vertex="1">
                    <mxGeometry x="240" y="370" width="120" height="40" as="geometry"/>
                </mxCell>
                <mxCell id="72" value="" style="shape=flexArrow;endArrow=classic;html=1;rounded=0;fontSize=11;endWidth=42;endSize=7.33;width=18;strokeWidth=3;fillColor=#FFFFFF;strokeColor=#0000FF;" parent="1" edge="1">
                    <mxGeometry width="50" height="50" relative="1" as="geometry">
                        <mxPoint x="200" y="360" as="sourcePoint"/>
                        <mxPoint x="200" y="420" as="targetPoint"/>
                    </mxGeometry>
                </mxCell>
                <mxCell id="73" value="" style="endArrow=classic;startArrow=classic;html=1;strokeColor=#0000FF;strokeWidth=3;fillColor=#FFFFFF;edgeStyle=orthogonalEdgeStyle;curved=1;" edge="1" parent="1">
                    <mxGeometry width="50" height="50" relative="1" as="geometry">
                        <mxPoint x="270" y="500" as="sourcePoint"/>
                        <mxPoint x="400" y="560" as="targetPoint"/>
                        <Array as="points"/>
                    </mxGeometry>
                </mxCell>
                <mxCell id="74" value="" style="endArrow=classic;startArrow=classic;html=1;strokeColor=#0000FF;strokeWidth=3;fillColor=#FFFFFF;edgeStyle=orthogonalEdgeStyle;curved=1;" edge="1" parent="1">
                    <mxGeometry width="50" height="50" relative="1" as="geometry">
                        <mxPoint x="200" y="650" as="sourcePoint"/>
                        <mxPoint x="380" y="650" as="targetPoint"/>
                        <Array as="points">
                            <mxPoint x="200" y="690"/>
                            <mxPoint x="380" y="690"/>
                        </Array>
                    </mxGeometry>
                </mxCell>
                <mxCell id="76" value="&lt;p style=&quot;text-align: left ; line-height: 1.6 ; font-size: 13px&quot;&gt;直接のやり取り&lt;/p&gt;" style="text;html=1;strokeColor=none;fillColor=#0000FF;align=center;verticalAlign=middle;whiteSpace=wrap;rounded=1;fontSize=13;rotation=15;labelBorderColor=none;dashed=1;fontColor=#ffffff;arcSize=50;" vertex="1" parent="1">
                    <mxGeometry x="292" y="493" width="116" height="30" as="geometry"/>
                </mxCell>
                <mxCell id="77" value="&lt;p style=&quot;text-align: left ; line-height: 1.6 ; font-size: 13px&quot;&gt;密度の濃い関係&lt;/p&gt;" style="text;html=1;strokeColor=none;fillColor=#0000FF;align=center;verticalAlign=middle;whiteSpace=wrap;rounded=1;fontSize=13;rotation=0;labelBorderColor=none;dashed=1;fontColor=#ffffff;arcSize=50;" vertex="1" parent="1">
                    <mxGeometry x="235" y="667" width="116" height="40" as="geometry"/>
                </mxCell>
                <mxCell id="79" value="裁量大・自立的" style="text;html=1;strokeColor=none;fillColor=none;align=center;verticalAlign=middle;whiteSpace=wrap;rounded=0;fontSize=11;" vertex="1" parent="1">
                    <mxGeometry x="291" y="545" width="80" height="15" as="geometry"/>
                </mxCell>
                <mxCell id="80" value="依存的" style="text;html=1;strokeColor=none;fillColor=none;align=center;verticalAlign=middle;whiteSpace=wrap;rounded=0;fontSize=11;" vertex="1" parent="1">
                    <mxGeometry x="351" y="190" width="40" height="20" as="geometry"/>
                </mxCell>
                <mxCell id="82" value="" style="endArrow=classic;startArrow=classic;html=1;strokeColor=#0000FF;strokeWidth=7;fillColor=#FFFFFF;curved=1;entryX=0;entryY=0.5;entryDx=0;entryDy=0;endSize=1;startSize=1;" edge="1" parent="1" target="85">
                    <mxGeometry width="50" height="50" relative="1" as="geometry">
                        <mxPoint x="420" y="609.66" as="sourcePoint"/>
                        <mxPoint x="460" y="610" as="targetPoint"/>
                    </mxGeometry>
                </mxCell>
                <mxCell id="84" value="" style="endArrow=classic;startArrow=classic;html=1;strokeColor=#0000FF;strokeWidth=2;fillColor=#FFFFFF;curved=1;" edge="1" parent="1">
                    <mxGeometry width="50" height="50" relative="1" as="geometry">
                        <mxPoint x="440" y="249.65999999999994" as="sourcePoint"/>
                        <mxPoint x="480" y="249.99999999999986" as="targetPoint"/>
                    </mxGeometry>
                </mxCell>
                <mxCell id="85" value="地域社会" style="whiteSpace=wrap;html=1;align=center;verticalAlign=middle;treeFolding=1;treeMoving=1;newEdgeStyle={&quot;edgeStyle&quot;:&quot;elbowEdgeStyle&quot;,&quot;startArrow&quot;:&quot;none&quot;,&quot;endArrow&quot;:&quot;none&quot;};" vertex="1" parent="1">
                    <mxGeometry x="470" y="580" width="70" height="60" as="geometry"/>
                </mxCell>
                <mxCell id="86" value="地域社会" style="whiteSpace=wrap;html=1;align=center;verticalAlign=middle;treeFolding=1;treeMoving=1;newEdgeStyle={&quot;edgeStyle&quot;:&quot;elbowEdgeStyle&quot;,&quot;startArrow&quot;:&quot;none&quot;,&quot;endArrow&quot;:&quot;none&quot;};" vertex="1" parent="1">
                    <mxGeometry x="480" y="230" width="70" height="40" as="geometry"/>
                </mxCell>
                <mxCell id="89" value="共助" style="text;html=1;strokeColor=none;fillColor=none;align=center;verticalAlign=middle;whiteSpace=wrap;rounded=0;fontSize=11;" vertex="1" parent="1">
                    <mxGeometry x="420" y="575" width="50" height="20" as="geometry"/>
                </mxCell>
                <mxCell id="90" value="共助" style="text;html=1;strokeColor=none;fillColor=none;align=center;verticalAlign=middle;whiteSpace=wrap;rounded=0;fontSize=11;" vertex="1" parent="1">
                    <mxGeometry x="440" y="220" width="40" height="20" as="geometry"/>
                </mxCell>
                <mxCell id="92" value="" style="curved=1;endArrow=classic;html=1;startSize=1;endSize=1;strokeColor=#0000FF;strokeWidth=2;fillColor=#FFFFFF;dashed=1;exitX=1;exitY=0.5;exitDx=0;exitDy=0;" edge="1" parent="1" source="71">
                    <mxGeometry width="50" height="50" relative="1" as="geometry">
                        <mxPoint x="90" y="410" as="sourcePoint"/>
                        <mxPoint x="150" y="400" as="targetPoint"/>
                        <Array as="points">
                            <mxPoint x="610" y="380"/>
                            <mxPoint x="600" y="750"/>
                            <mxPoint x="60" y="740"/>
                            <mxPoint x="30" y="420"/>
                        </Array>
                    </mxGeometry>
                </mxCell>
                <mxCell id="94" value="" style="shape=image;verticalLabelPosition=bottom;verticalAlign=top;imageAspect=0;aspect=fixed;image=data:image/svg+xml,PHN2ZyB4bWxucz0iaHR0cDovL3d3dy53My5vcmcvMjAwMC9zdmciIHZpZXdCb3g9IjAgMCAzNiAzNiI+PGNpcmNsZSBmaWxsPSIjRkZDQjRDIiBjeD0iMTgiIGN5PSIxNy4wMTgiIHI9IjE3Ii8+PHBhdGggZmlsbD0iIzY1NDcxQiIgZD0iTTE0LjUyNCAyMS4wMzZjLS4xNDUtLjExNi0uMjU4LS4yNzQtLjMxMi0uNDY0LS4xMzQtLjQ2LjEzLS45MTguNTktMS4wMjEgNC41MjgtMS4wMjEgNy41NzcgMS4zNjMgNy43MDYgMS40NjUuMzg0LjMwNi40NTkuODQ1LjE3MyAxLjIwNS0uMjg2LjM1OC0uODI4LjQwMS0xLjIxMS4wOTctLjExLS4wODQtMi41MjMtMS45MjMtNi4xODItMS4wOTgtLjI3NC4wNjEtLjU1NC0uMDE2LS43NjQtLjE4NHoiLz48ZWxsaXBzZSBmaWxsPSIjNjU0NzFCIiBjeD0iMTMuMTE5IiBjeT0iMTEuMTc0IiByeD0iMi4xMjUiIHJ5PSIyLjY1NiIvPjxlbGxpcHNlIGZpbGw9IiM2NTQ3MUIiIGN4PSIyNC4zNzUiIGN5PSIxMi4yMzYiIHJ4PSIyLjEyNSIgcnk9IjIuNjU2Ii8+PHBhdGggZmlsbD0iI0YxOTAyMCIgZD0iTTE3LjI3NiAzNS4xNDlzMS4yNjUtLjQxMSAxLjQyOS0xLjM1MmMuMTczLS45NzItLjYyNC0xLjE2Ny0uNjI0LTEuMTY3czEuMDQxLS4yMDggMS4xNzItMS4zNzZjLjEyMy0xLjEwMS0uODYxLTEuMzYzLS44NjEtMS4zNjNzLjk3LS40IDEuMDE2LTEuNTM5Yy4wMzgtLjk1OS0uOTk1LTEuNDI4LS45OTUtMS40MjhzNS4wMzgtMS4yMjEgNS41NTYtMS4zNDFjLjUxNi0uMTIgMS4zMi0uNjE1IDEuMDY5LTEuNjk0LS4yNDktMS4wOC0xLjIwNC0xLjExOC0xLjY5Ny0xLjAwMy0uNDk0LjExNS02Ljc0NCAxLjU2Ni04LjkgMi4wNjhsLTEuNDM5LjMzNGMtLjU0LjEyNy0uNzg1LS4xMS0uNDA0LS41MTIuNTA4LS41MzYuODMzLTEuMTI5Ljk0Ni0yLjExMy4xMTktMS4wMzUtLjIzMi0yLjMxMy0uNDMzLTIuODA5LS4zNzQtLjkyMS0xLjAwNS0xLjY0OS0xLjczNC0xLjg5OS0xLjEzNy0uMzktMS45NDUuMzIxLTEuNTQyIDEuNTYxLjYwNCAxLjg1NC4yMDggMy4zNzUtLjgzMyA0LjI5My0yLjQ0OSAyLjE1Ny0zLjU4OCAzLjY5NS0yLjgzIDYuOTczLjgyOCAzLjU3NSA0LjM3NyA1Ljg3NiA3Ljk1MiA1LjA0OGwzLjE1Mi0uNjgxeiIvPjxwYXRoIGZpbGw9IiM2NTQ3MUIiIGQ9Ik05LjI5NiA2LjM1MWMtLjE2NC0uMDg4LS4zMDMtLjIyNC0uMzkxLS4zOTktLjIxNi0uNDI4LS4wNC0uOTI3LjM5My0xLjExMiA0LjI2Ni0xLjgzMSA3LjY5OS0uMDQzIDcuODQzLjAzNC40MzMuMjMxLjYwOC43NDcuMzkxIDEuMTU0LS4yMTYuNDA1LS43NC41NDYtMS4xNzMuMzE4LS4xMjMtLjA2My0yLjgzMi0xLjQzMi02LjI3OC4wNDctLjI1Ny4xMDktLjU0Ny4wODUtLjc4NS0uMDQyem0xMi4xMzUgMy43NWMtLjE1Ni0uMDk4LS4yODYtLjI0My0uMzYyLS40MjQtLjE4Ny0uNDQyLjAyMy0uOTI3LjQ2OC0xLjA4NCA0LjM4MS0xLjUzNiA3LjY4NS40OCA3LjgyMy41NjcuNDE1LjI2LjU1NS43ODcuMzEyIDEuMTc4LS4yNDIuMzktLjc3Ni40OTUtMS4xOTEuMjM4LS4xMi0uMDcyLTIuNzI3LTEuNjIxLTYuMjY3LS4zNzktLjI2Ni4wOTEtLjU1My4wNDYtLjc4My0uMDk2eiIvPjwvc3ZnPg==;fillColor=#0000FF;" vertex="1" parent="1">
                    <mxGeometry x="360" y="340" width="40" height="40" as="geometry"/>
                </mxCell>
            </root>
        </mxGraphModel>
    </diagram>
</mxfile>